<?xml version="1.0" encoding="UTF-8" standalone="no"?>
<!-- Created with Inkscape (http://www.inkscape.org/) -->

<svg
   version="1.1"
   id="svg2"
   width="1365.3333"
   height="1365.3333"
   viewBox="0 0 1365.3333 1365.3333"
   sodipodi:docname="logo.svg"
   inkscape:version="1.2.2 (b0a8486541, 2022-12-01)"
   xmlns:inkscape="http://www.inkscape.org/namespaces/inkscape"
   xmlns:sodipodi="http://sodipodi.sourceforge.net/DTD/sodipodi-0.dtd"
   xmlns="http://www.w3.org/2000/svg"
   xmlns:svg="http://www.w3.org/2000/svg">
  <defs
     id="defs6" />
  <sodipodi:namedview
     id="namedview4"
     pagecolor="#ffffff"
     bordercolor="#999999"
     borderopacity="1"
     inkscape:showpageshadow="0"
     inkscape:pageopacity="0"
     inkscape:pagecheckerboard="0"
     inkscape:deskcolor="#d1d1d1"
     showgrid="false"
     inkscape:zoom="0.71264081"
     inkscape:cx="631.45415"
     inkscape:cy="620.2283"
     inkscape:window-width="1920"
     inkscape:window-height="1029"
     inkscape:window-x="0"
     inkscape:window-y="0"
     inkscape:window-maximized="1"
     inkscape:current-layer="g8" />
  <g
     inkscape:groupmode="layer"
     inkscape:label="Image"
     id="g8">
    <path
       style="fill:#050505;stroke:none;stroke-width:1.33333"
       d="m 615.46321,545.67964 v 310.66666 61.33333 c 0,8.37867 -0.70501,18.70839 1.79899,26.73772 2.348,7.52667 7.63968,14.53695 14.20101,18.60228 16.048,9.94667 68.77867,17.988 77.84933,-4.012 4.936,-11.97466 2.15067,-28.604 2.15067,-41.328 V 831.01297 628.34631 c 0,-32.656 3.55867,-67.63333 0,-100 58.53466,-7.404 159.70399,-33.61867 182.63333,41.33333 2.80533,9.16667 4.04533,18.436 4.03333,28 -0.016,12.87867 -3.13067,26.48134 -7.28533,38.66667 -6.884,20.184 -21.852,39.49066 -37.096,54.08133 -6.996,6.696 -20.372,12.40933 -24.83333,21.02 -3.76,7.25867 -1.452,19.56267 -1.452,27.56533 15.91066,0.0107 34.54399,1.28267 49.33333,7.628 54.87733,23.55067 65.64,92.356 32.272,138.812 -9.37867,13.05866 -20.12,23.49466 -32.324,33.888 -5.112,4.35333 -13.61334,7.72666 -17.29733,13.352 -4.79334,7.32266 -3.984,19.30133 -3.984,27.65333 67.37066,-9.072 141.30399,-55.64133 168.37199,-118.66666 20.88,-48.62 0.2747,-111.112 -45.70533,-137.49333 -20.43867,-11.72667 -42.488,-13.17334 -65.33333,-13.17334 22.18533,-42.99466 71.39333,-68.67199 80.71333,-119.99999 11.94403,-65.768 -40.93333,-110.32933 -98.04667,-127.54267 -37.97333,-11.444 -81.13066,-7.25333 -119.99999,-4.576 -68.42667,4.712 -139.428,12.09734 -206.66666,26.33334 -33.128,7.01466 -70.22267,18.80133 -91.29467,47.11866 -7.29333,9.80133 -16.856,22.96267 -13.28,36 2.14,7.79867 9.76533,13.212 15.24133,18.668 6.44134,6.41867 13.35867,14.71733 22.66667,16.80667 13.44133,3.01866 28.512,-6.70667 40,-12.448 21.20667,-10.596 49.328,-24.596 73.33333,-25.69334"
       id="path170"
       sodipodi:nodetypes="ccscccscsccscsccccscccsccccccccccc"
       inkscape:export-filename="logo.png"
       inkscape:export-xdpi="33.770279"
       inkscape:export-ydpi="33.770279" />
  </g>
</svg>
