<?xml version="1.0" encoding="UTF-8" standalone="no"?>
<!-- Generator: Adobe Illustrator 18.1.1, SVG Export Plug-In . SVG Version: 6.00 Build 0)  -->

<svg
   xmlns:dc="http://purl.org/dc/elements/1.1/"
   xmlns:cc="http://creativecommons.org/ns#"
   xmlns:rdf="http://www.w3.org/1999/02/22-rdf-syntax-ns#"
   xmlns:svg="http://www.w3.org/2000/svg"
   xmlns="http://www.w3.org/2000/svg"
   xmlns:sodipodi="http://sodipodi.sourceforge.net/DTD/sodipodi-0.dtd"
   xmlns:inkscape="http://www.inkscape.org/namespaces/inkscape"
   version="1.1"
   id="Capa_1"
   x="0px"
   y="0px"
   viewBox="0 0 22.624 22.624"
   style="enable-background:new 0 0 22.624 22.624;"
   xml:space="preserve"
   sodipodi:docname="icon.svg"
   inkscape:version="0.92.4 (5da689c313, 2019-01-14)"
   inkscape:export-filename="D:\Users\benoit.verhaeghe\Downloads\logo badetitou\icon.png"
   inkscape:export-xdpi="3542.8572"
   inkscape:export-ydpi="3542.8572"><metadata
   id="metadata3793"><rdf:RDF><cc:Work
       rdf:about=""><dc:format>image/svg+xml</dc:format><dc:type
         rdf:resource="http://purl.org/dc/dcmitype/StillImage" /></cc:Work></rdf:RDF></metadata><defs
   id="defs3791" /><sodipodi:namedview
   pagecolor="#ffffff"
   bordercolor="#666666"
   borderopacity="1"
   objecttolerance="10"
   gridtolerance="10"
   guidetolerance="10"
   inkscape:pageopacity="0"
   inkscape:pageshadow="2"
   inkscape:window-width="1920"
   inkscape:window-height="1001"
   id="namedview3789"
   showgrid="false"
   inkscape:object-paths="false"
   inkscape:zoom="35.714285"
   inkscape:cx="11.312"
   inkscape:cy="11.312"
   inkscape:window-x="-9"
   inkscape:window-y="-9"
   inkscape:window-maximized="1"
   inkscape:current-layer="Capa_1" />
<g
   id="g3756">
	<path
   style="fill:#030104;"
   d="M11.312,6.551c-1.646,0-3.18,0.498-4.45,1.347c0,0,0-5.685,0-5.919C6.862,0.886,6.1,0,5.008,0   C3.915,0,3.277,0.886,3.277,1.979v12.608c0,4.438,3.597,8.037,8.035,8.037c4.435,0,8.036-3.599,8.036-8.037   C19.347,10.15,15.747,6.551,11.312,6.551z M11.312,19.038c-2.458,0-4.45-1.993-4.45-4.451s1.992-4.45,4.45-4.45   c2.459,0,4.451,1.992,4.451,4.45S13.771,19.038,11.312,19.038z"
   id="path3754" />
</g>
<g
   id="g3758">
</g>
<g
   id="g3760">
</g>
<g
   id="g3762">
</g>
<g
   id="g3764">
</g>
<g
   id="g3766">
</g>
<g
   id="g3768">
</g>
<g
   id="g3770">
</g>
<g
   id="g3772">
</g>
<g
   id="g3774">
</g>
<g
   id="g3776">
</g>
<g
   id="g3778">
</g>
<g
   id="g3780">
</g>
<g
   id="g3782">
</g>
<g
   id="g3784">
</g>
<g
   id="g3786">
</g>
<rect
   style="fill:#000000"
   id="rect3795"
   width="14.756001"
   height="2.7440002"
   x="0.028000001"
   y="1.8442137e-10"
   ry="1.26" /></svg>