<?xml version="1.0" encoding="utf-8"?>
<!-- Generator: Adobe Illustrator 23.0.0, SVG Export Plug-In . SVG Version: 6.00 Build 0)  -->
<svg version="1.1"
	 id="Capa_1" inkscape:export-filename="D:\Users\benoit.verhaeghe\Downloads\logo badetitou\icon.png" inkscape:export-xdpi="3542.8572" inkscape:export-ydpi="3542.8572" inkscape:version="0.92.4 (5da689c313, 2019-01-14)" sodipodi:docname="icon.svg" xmlns:cc="http://creativecommons.org/ns#" xmlns:dc="http://purl.org/dc/elements/1.1/" xmlns:inkscape="http://www.inkscape.org/namespaces/inkscape" xmlns:rdf="http://www.w3.org/1999/02/22-rdf-syntax-ns#" xmlns:sodipodi="http://sodipodi.sourceforge.net/DTD/sodipodi-0.dtd" xmlns:svg="http://www.w3.org/2000/svg"
	 xmlns="http://www.w3.org/2000/svg" xmlns:xlink="http://www.w3.org/1999/xlink" x="0px" y="0px" viewBox="0 0 22.6 22.6"
	 style="enable-background:new 0 0 22.6 22.6;" xml:space="preserve">
<g>
	<path d="M9.8,0.6v12.9c0,2.1,0.8,3.1,2.3,3.1c0.6,0,1.2-0.2,1.6-0.7c0.4-0.4,0.7-1,0.7-1.6c0-0.6-0.2-1.2-0.6-1.6s-0.9-0.7-1.5-0.7
		c-0.4,0-0.9,0.2-1.5,0.6V6.2c0.7-0.1,1.2-0.1,1.6-0.1c2.2,0,4.1,0.8,5.7,2.4s2.4,3.5,2.4,5.8c0,2.3-0.8,4.3-2.4,5.8
		c-1.6,1.6-3.6,2.4-5.9,2.4c-1.2,0-2.3-0.3-3.5-0.8c-1.1-0.5-2-1.2-2.8-2.1c-1.3-1.5-1.9-3.5-1.9-5.9V0.6H9.8z"/>
</g>
<path d="M17.5,3.6h-15C1.7,3.6,1,3,1,2.1v0c0-0.8,0.7-1.5,1.5-1.5h15c0.8,0,1.5,0.7,1.5,1.5v0C19,3,18.3,3.6,17.5,3.6z"/>
</svg>
