<svg id="Calque_1" data-name="Calque 1" xmlns="http://www.w3.org/2000/svg" viewBox="0 0 529.69 701.1"><title>logo</title><path d="M7252.76,7554.6c-35.1,0-69.7-7.9-112.2-25.63l-.11-.05c-33.84-15.39-63.24-37.46-89.87-67.45-40.54-46.82-61.08-110.52-61.08-189.38V6857.5a4,4,0,0,1,4-4h183a4,4,0,0,1,4,4v408.26c0,31.88,6.05,55.95,18,71.55,11.44,15,28.81,22.56,51.62,22.56,20.23,0,37.31-7.34,48.09-20.67a3,3,0,0,1,.3-.32c13.08-12.95,21.21-31.26,21.21-47.8,0-19.05-6.57-36.47-18-47.79-14.09-13.93-29.29-21-45.19-21-11.94,0-27.35,6.17-45.8,18.33a4,4,0,0,1-2.2.66,4,4,0,0,1-4-4V7034.73a4,4,0,0,1,3.43-4,331.25,331.25,0,0,1,51.16-3.2c70.33,0,131.92,26,183.05,77.12,51.85,51.9,77,112.87,77,186.39,0,74.61-26.66,139.08-77.1,186.44C7391,7528.66,7327.27,7554.6,7252.76,7554.6Z" transform="translate(-6989.5 -6853.5)"/></svg>