<?xml version="1.0" encoding="UTF-8" standalone="no"?>
<!-- Created with Inkscape (http://www.inkscape.org/) -->

<svg
   width="210mm"
   height="297mm"
   viewBox="0 0 210 297"
   version="1.1"
   id="svg5"
   xml:space="preserve"
   inkscape:version="1.2.1 (9c6d41e410, 2022-07-14)"
   sodipodi:docname="logo.svg"
   xmlns:inkscape="http://www.inkscape.org/namespaces/inkscape"
   xmlns:sodipodi="http://sodipodi.sourceforge.net/DTD/sodipodi-0.dtd"
   xmlns="http://www.w3.org/2000/svg"
   xmlns:svg="http://www.w3.org/2000/svg"><sodipodi:namedview
     id="namedview7"
     pagecolor="#ffffff"
     bordercolor="#000000"
     borderopacity="0.25"
     inkscape:showpageshadow="2"
     inkscape:pageopacity="0.0"
     inkscape:pagecheckerboard="0"
     inkscape:deskcolor="#d1d1d1"
     inkscape:document-units="mm"
     showgrid="false"
     inkscape:zoom="1.0444209"
     inkscape:cx="409.79646"
     inkscape:cy="592.67292"
     inkscape:window-width="1920"
     inkscape:window-height="1009"
     inkscape:window-x="1912"
     inkscape:window-y="-8"
     inkscape:window-maximized="1"
     inkscape:current-layer="layer1" /><defs
     id="defs2" /><g
     inkscape:label="Calque 1"
     inkscape:groupmode="layer"
     id="layer1"><path
       style="fill:#ff7f2a;stroke:none;stroke-width:0.264583"
       d="m 97.089,137.98002 -5.393,1.44571 -3.439,-1.51087 c -7.683114,7.68661 0.0098,-0.0354 -7.747,7.73808 l 1.48,3.43958 -1.40615,4.7625 -4.216683,0.87256 c -0.02738,3.85422 -0.01665,7.70857 -0.01665,11.56286 l 3.82024,0.59717 c 1.869425,4.49549 0.0062,0.003 1.819243,4.42991 -1.512767,3.51012 -0.03655,0.0148 -1.48,3.43959 2.591363,2.68748 4.95596,5.28703 7.747,7.76256 l 3.439,-1.416 5.393,1.53833 0.148,4.02048 c 2.386578,9e-4 4.77277,7.5e-4 7.15935,8.8e-4 v -6.35 c 1.75022,0 4.39684,-0.49636 6.01715,0.21749 1.95818,0.86227 2.56725,2.94084 5.09535,2.85591 4.99268,-0.16748 5.99122,-7.298 1.32291,-8.96197 -1.4769,-0.52652 -3.23479,-0.19791 -4.45108,0.77629 -0.67231,0.53843 -1.13268,1.3708 -1.94575,1.72005 -1.64306,0.70565 -4.27037,0.21723 -6.03858,0.21723 l -3.5e-4,-3.175 c -2.85096,0 -5.358813,-0.17886 -7.937153,-1.54067 -7.85836,-4.15052 -9.89343,-14.84707 -3.90559,-21.47314 3.09829,-3.42852 7.33675,-4.74953 11.842743,-4.76744 l 3.5e-4,-2.91042 c 1.78117,0 4.38388,-0.47993 6.0444,0.21672 0.80936,0.33957 1.29276,1.13416 1.96136,1.66624 1.29725,1.0324 3.14431,1.31543 4.69344,0.68771 4.46935,-1.81097 3.20887,-8.70048 -1.5867,-8.85619 -2.51831,-0.0818 -3.16045,2.01972 -5.10514,2.89316 -1.6039,0.72025 -4.27011,0.21736 -6.00736,0.21736 v -6.35 H 97.237 m 27.26768,9.45057 c -1.6682,0.0695 -3.21019,0.94922 -3.96108,2.46081 -0.39846,0.80222 -0.43629,1.79959 -1.01362,2.50706 -0.91413,1.12004 -2.96148,1.89307 -4.28572,2.39993 -1.56501,0.59897 -3.38164,0.37955 -5.02708,0.37955 -5.36707,0 -11.839313,-1.2328 -15.826073,3.1801 -4.33877,4.80254 -2.42999,13.01795 3.91982,14.94677 3.751103,1.13956 8.541283,0.39396 12.435423,0.39396 1.46552,0 3.08768,-0.18838 4.49791,0.28231 1.2999,0.43392 3.3708,1.24566 4.28255,2.2987 0.69109,0.79772 0.63182,2.04788 1.17951,2.95249 1.22714,2.02565 4.12803,2.72997 6.17749,1.5449 3.71396,-2.14762 2.65166,-7.86712 -1.58538,-8.54975 -1.55046,-0.2495 -2.76278,0.85619 -4.23333,0.75645 -2.16191,-0.14632 -3.8944,-2.15424 -6.08542,-2.41115 -3.44038,-0.40349 -7.11941,-0.0489 -10.58333,-0.0489 -1.5367,0 -3.27533,0.21431 -4.762503,-0.24051 -3.33026,-1.01811 -5.44039,-4.98977 -3.94541,-8.22616 1.49952,-3.24617 4.485133,-3.70411 7.649573,-3.70416 3.80868,-6e-5 7.85919,0.39465 11.64167,-0.0489 2.20133,-0.25813 3.91927,-2.24208 6.08542,-2.43287 0.92763,-0.0817 1.76292,0.49739 2.64583,0.68839 1.26894,0.2745 2.63234,-0.0908 3.67771,-0.84659 3.54277,-2.56111 1.47082,-8.46368 -2.88396,-8.28236 m -24.870833,15.42026 c 5e-4,0.81889 0.0274,2.04351 0.007,3.15829 1.388233,0.0571 4.276363,0.0167 5.549273,0.0167 h 9.26041 c 1.52215,0 3.25517,-0.22727 4.75113,0.0751 1.21629,0.24606 1.75313,1.36736 2.69822,2.04575 1.52029,1.09141 3.66024,1.09485 5.2279,0.10584 4.86251,-3.06679 0.2794,-10.63678 -4.73419,-7.89438 -1.05066,0.57468 -1.61237,1.80727 -2.69822,2.27529 -0.85249,0.36751 -1.95792,0.21727 -2.86359,0.21735 h -5.29166 z"
       id="path3565"
       sodipodi:nodetypes="ccccccccccccccccccccsccccsccsssscccccscssscscccccccscsssssccccsscccscccc" /></g></svg>
